ffmpeg started on 2016-12-05 at 21:49:21
Report written to "Output/x264/results/ffmpeg/sintelfaster13000k.log"
Command line:
Tools/ffmpeg/ffmpeg -benchmark -y -i Input/y4m/sintel.y4m -c:v libx264 -preset faster -b:v 13000k -an Output/x264/encoded/sintelfaster13000k.mkv
ffmpeg version N-82227-gdb23fde Copyright (c) 2000-2016 the FFmpeg developers
  built with gcc 5.4.0 (Ubuntu 5.4.0-6ubuntu1~16.04.2) 20160609
  configuration: --prefix=/home/jaroslav/ffmpeg_build --pkg-config-flags=--static --extra-cflags=-I/home/jaroslav/ffmpeg_build/include --extra-ldflags=-L/home/jaroslav/ffmpeg_build/lib --bindir=/home/jaroslav/bin --enable-gpl --enable-libass --enable-libfdk-aac --enable-libfreetype --enable-libmp3lame --enable-libopus --enable-libtheora --enable-libvorbis --enable-libvpx --enable-libx264 --enable-libx265 --enable-nvenc --enable-libmfx --enable-libxvid --enable-libgsm --enable-libopencore-amrnb --enable-version3 --enable-nonfree
  libavutil      55. 35.100 / 55. 35.100
  libavcodec     57. 66.101 / 57. 66.101
  libavformat    57. 57.100 / 57. 57.100
  libavdevice    57.  2.100 / 57.  2.100
  libavfilter     6. 66.100 /  6. 66.100
  libswscale      4.  3.100 /  4.  3.100
  libswresample   2.  4.100 /  2.  4.100
  libpostproc    54.  2.100 / 54.  2.100
Input #0, yuv4mpegpipe, from 'Input/y4m/sintel.y4m':
  Duration: 00:00:20.83, start: 0.000000, bitrate: 2057307 kb/s
    Stream #0:0: Video: rawvideo (I420 / 0x30323449), yuv420p(progressive), 4096x1744, SAR 1:1 DAR 256:109, 24 fps, 24 tbr, 24 tbn, 24 tbc
[libx264 @ 0x28521c0] using SAR=1/1
[libx264 @ 0x28521c0] using cpu capabilities: MMX2 SSE2Fast SSSE3 SSE4.2 AVX FMA3 AVX2 LZCNT BMI2
[libx264 @ 0x28521c0] profile High, level 5.1
[libx264 @ 0x28521c0] 264 - core 148 - H.264/MPEG-4 AVC codec - Copyleft 2003-2016 - http://www.videolan.org/x264.html - options: cabac=1 ref=2 deblock=1:0:0 analyse=0x3:0x113 me=hex subme=4 psy=1 psy_rd=1.00:0.00 mixed_ref=0 me_range=16 chroma_me=1 trellis=1 8x8dct=1 cqm=0 deadzone=21,11 fast_pskip=1 chroma_qp_offset=0 threads=6 lookahead_threads=1 sliced_threads=0 nr=0 decimate=1 interlaced=0 bluray_compat=0 constrained_intra=0 bframes=3 b_pyramid=2 b_adapt=1 b_bias=0 direct=1 weightb=1 open_gop=0 weightp=1 keyint=250 keyint_min=24 scenecut=40 intra_refresh=0 rc_lookahead=20 rc=abr mbtree=1 bitrate=13000 ratetol=1.0 qcomp=0.60 qpmin=0 qpmax=69 qpstep=4 ip_ratio=1.40 aq=1:1.00
Output #0, matroska, to 'Output/x264/encoded/sintelfaster13000k.mkv':
  Metadata:
    encoder         : Lavf57.57.100
    Stream #0:0: Video: h264 (libx264) (H264 / 0x34363248), yuv420p, 4096x1744 [SAR 1:1 DAR 256:109], q=-1--1, 13000 kb/s, 24 fps, 1k tbn, 24 tbc
    Metadata:
      encoder         : Lavc57.66.101 libx264
    Side data:
      cpb: bitrate max/min/avg: 0/0/13000000 buffer size: 0 vbv_delay: -1
Stream mapping:
  Stream #0:0 -> #0:0 (rawvideo (native) -> h264 (libx264))
Press [q] to stop, [?] for help
frame=    8 fps=0.0 q=0.0 size=       0kB time=00:00:00.00 bitrate=N/A speed=   0x    frame=   17 fps= 16 q=0.0 size=       0kB time=00:00:00.00 bitrate=N/A speed=   0x    frame=   26 fps= 16 q=0.0 size=       0kB time=00:00:00.00 bitrate=N/A speed=   0x    frame=   27 fps= 10 q=0.0 size=       0kB time=00:00:00.00 bitrate=N/A speed=   0x    frame=   33 fps= 10 q=23.0 size=       1kB time=00:00:00.00 bitrate=5864.0kbits/s speed=0.000305x    frame=   35 fps=9.1 q=26.0 size=       1kB time=00:00:00.08 bitrate=  69.8kbits/s speed=0.0219x    frame=   39 fps=8.9 q=40.0 size=       1kB time=00:00:00.25 bitrate=  23.4kbits/s speed=0.0575x    frame=   47 fps=9.3 q=40.0 size=       1kB time=00:00:00.58 bitrate=  10.0kbits/s speed=0.115x    frame=   48 fps=5.4 q=40.0 size=       1kB time=00:00:00.62 bitrate=   9.4kbits/s speed=0.07x    frame=   49 fps=5.1 q=40.0 size=       1kB time=00:00:00.66 bitrate=   8.8kbits/s speed=0.0698x    frame=   56 fps=5.5 q=39.0 size=       1kB time=00:00:00.95 bitrate=   6.1kbits/s speed=0.0945x    frame=   64 fps=6.0 q=38.0 size=       1kB time=00:00:01.29 bitrate=   4.5kbits/s speed=0.121x    frame=   73 fps=6.5 q=37.0 size=       1kB time=00:00:01.66 bitrate=   3.5kbits/s speed=0.148x    frame=   80 fps=6.8 q=37.0 size=       1kB time=00:00:01.95 bitrate=   3.0kbits/s speed=0.167x    frame=   87 fps=7.1 q=36.0 size=       1kB time=00:00:02.25 bitrate=   2.6kbits/s speed=0.183x    frame=   93 fps=7.3 q=36.0 size=    5178kB time=00:00:02.50 bitrate=16959.3kbits/s speed=0.195x    frame=  100 fps=7.5 q=36.0 size=    5178kB time=00:00:02.79 bitrate=15186.3kbits/s speed=0.21x    frame=  107 fps=7.7 q=35.0 size=    5178kB time=00:00:03.08 bitrate=13753.3kbits/s speed=0.223x    frame=  114 fps=7.9 q=35.0 size=    5178kB time=00:00:03.37 bitrate=12563.8kbits/s speed=0.234x    frame=  121 fps=8.1 q=35.0 size=    5178kB time=00:00:03.66 bitrate=11563.6kbits/s speed=0.245x    frame=  128 fps=8.3 q=35.0 size=    6876kB time=00:00:03.95 bitrate=14228.8kbits/s speed=0.256x    frame=  133 fps=8.3 q=34.0 size=    6876kB time=00:00:04.16 bitrate=13515.3kbits/s speed=0.26x    frame=  139 fps=8.4 q=34.0 size=    6876kB time=00:00:04.41 bitrate=12750.6kbits/s speed=0.266x    frame=  148 fps=8.6 q=34.0 size=    6876kB time=00:00:04.79 bitrate=11753.0kbits/s speed=0.28x    frame=  153 fps=8.7 q=34.0 size=    6876kB time=00:00:05.00 bitrate=11264.1kbits/s speed=0.283x    frame=  160 fps=8.8 q=34.0 size=    6876kB time=00:00:05.29 bitrate=10642.7kbits/s speed=0.291x    frame=  168 fps=9.0 q=34.0 size=    6876kB time=00:00:05.62 bitrate=10012.8kbits/s speed= 0.3x    frame=  175 fps=9.1 q=34.0 size=    6876kB time=00:00:05.91 bitrate=9518.8kbits/s speed=0.307x    frame=  183 fps=9.2 q=33.0 size=    6876kB time=00:00:06.25 bitrate=9011.7kbits/s speed=0.315x    frame=  191 fps=9.4 q=33.0 size=   10267kB time=00:00:06.58 bitrate=12774.0kbits/s speed=0.323x    frame=  198 fps=9.5 q=33.0 size=   10267kB time=00:00:06.87 bitrate=12231.6kbits/s speed=0.329x    frame=  204 fps=9.5 q=33.0 size=   10267kB time=00:00:07.12 bitrate=11802.4kbits/s speed=0.333x    frame=  212 fps=9.6 q=33.0 size=   10267kB time=00:00:07.45 bitrate=11275.5kbits/s speed=0.339x    frame=  219 fps=9.7 q=33.0 size=   11701kB time=00:00:07.75 bitrate=12366.9kbits/s speed=0.345x    frame=  225 fps=9.8 q=32.0 size=   11701kB time=00:00:08.00 bitrate=11980.5kbits/s speed=0.348x    frame=  233 fps=9.9 q=32.0 size=   11701kB time=00:00:08.33 bitrate=11501.8kbits/s speed=0.353x    frame=  239 fps=9.9 q=32.0 size=   11701kB time=00:00:08.58 bitrate=11166.8kbits/s speed=0.356x    frame=  246 fps=9.9 q=32.0 size=   11701kB time=00:00:08.87 bitrate=10799.4kbits/s speed=0.358x    frame=  253 fps= 10 q=32.0 size=   11701kB time=00:00:09.16 bitrate=10455.5kbits/s speed=0.362x    frame=  261 fps= 10 q=32.0 size=   11701kB time=00:00:09.50 bitrate=10089.0kbits/s speed=0.366x    frame=  267 fps= 10 q=32.0 size=   11701kB time=00:00:09.75 bitrate=9830.3kbits/s speed=0.368x    frame=  274 fps= 10 q=32.0 size=   11701kB time=00:00:10.04 bitrate=9544.5kbits/s speed=0.372x    frame=  283 fps= 10 q=32.0 size=   11701kB time=00:00:10.41 bitrate=9201.0kbits/s speed=0.378x    frame=  289 fps= 10 q=31.0 size=   11701kB time=00:00:10.66 bitrate=8985.3kbits/s speed=0.379x    frame=  297 fps= 10 q=31.0 size=   16142kB time=00:00:11.00 bitrate=12020.2kbits/s speed=0.383x    frame=  304 fps= 10 q=31.0 size=   16142kB time=00:00:11.29 bitrate=11709.4kbits/s speed=0.386x    frame=  311 fps= 10 q=31.0 size=   16142kB time=00:00:11.58 bitrate=11415.3kbits/s speed=0.389x    frame=  319 fps= 11 q=31.0 size=   16142kB time=00:00:11.91 bitrate=11095.4kbits/s speed=0.394x    frame=  327 fps= 11 q=31.0 size=   16142kB time=00:00:12.25 bitrate=10793.8kbits/s speed=0.398x    frame=  337 fps= 11 q=30.0 size=   16142kB time=00:00:12.66 bitrate=10438.5kbits/s speed=0.404x    frame=  345 fps= 11 q=30.0 size=   16142kB time=00:00:13.00 bitrate=10171.1kbits/s speed=0.408x    frame=  354 fps= 11 q=29.0 size=   16142kB time=00:00:13.37 bitrate=9885.9kbits/s speed=0.413x    frame=  364 fps= 11 q=29.0 size=   16142kB time=00:00:13.79 bitrate=9587.1kbits/s speed=0.419x    frame=  371 fps= 11 q=29.0 size=   16142kB time=00:00:14.08 bitrate=9389.0kbits/s speed=0.421x    frame=  381 fps= 11 q=28.0 size=   16142kB time=00:00:14.50 bitrate=9119.0kbits/s speed=0.426x    frame=  390 fps= 11 q=28.0 size=   16142kB time=00:00:14.87 bitrate=8889.1kbits/s speed=0.43x    frame=  397 fps= 11 q=28.0 size=   20155kB time=00:00:15.16 bitrate=10885.4kbits/s speed=0.431x    frame=  403 fps= 11 q=28.0 size=   20155kB time=00:00:15.41 bitrate=10708.9kbits/s speed=0.431x    frame=  410 fps= 11 q=28.0 size=   20155kB time=00:00:15.70 bitrate=10510.5kbits/s speed=0.432x    frame=  418 fps= 11 q=28.0 size=   20155kB time=00:00:16.04 bitrate=10291.7kbits/s speed=0.435x    frame=  424 fps= 11 q=28.0 size=   20155kB time=00:00:16.29 bitrate=10133.8kbits/s speed=0.434x    frame=  432 fps= 11 q=28.0 size=   20155kB time=00:00:16.62 bitrate=9930.8kbits/s speed=0.433x    frame=  440 fps= 11 q=28.0 size=   20155kB time=00:00:16.95 bitrate=9735.8kbits/s speed=0.436x    frame=  447 fps= 11 q=28.0 size=   20155kB time=00:00:17.25 bitrate=9571.0kbits/s speed=0.437x    frame=  454 fps= 11 q=28.0 size=   23953kB time=00:00:17.54 bitrate=11185.4kbits/s speed=0.439x    frame=  462 fps= 11 q=28.0 size=   23953kB time=00:00:17.87 bitrate=10977.0kbits/s speed=0.44x    frame=  469 fps= 11 q=28.0 size=   23953kB time=00:00:18.16 bitrate=10800.6kbits/s speed=0.441x    frame=  478 fps= 11 q=28.0 size=   23953kB time=00:00:18.54 bitrate=10582.2kbits/s speed=0.445x    frame=  484 fps= 11 q=28.0 size=   23953kB time=00:00:18.79 bitrate=10441.4kbits/s speed=0.445x    frame=  491 fps= 11 q=28.0 size=   23953kB time=00:00:19.08 bitrate=10282.2kbits/s speed=0.446x    frame=  496 fps= 11 q=28.0 size=   23953kB time=00:00:19.29 bitrate=10170.8kbits/s speed=0.445x    frame=  500 fps= 11 q=-1.0 Lsize=   29415kB time=00:00:20.70 bitrate=11635.9kbits/s speed=0.458x    
video:29410kB audio:0kB subtitle:0kB other streams:0kB global headers:0kB muxing overhead: 0.016768%
bench: utime=145.420s
bench: maxrss=1120284kB
[libx264 @ 0x28521c0] frame I:8     Avg QP:22.46  size:189816
[libx264 @ 0x28521c0] frame P:269   Avg QP:27.83  size: 69892
[libx264 @ 0x28521c0] frame B:223   Avg QP:25.74  size: 43928
[libx264 @ 0x28521c0] consecutive B-frames: 37.0%  8.4%  6.6% 48.0%
[libx264 @ 0x28521c0] mb I  I16..4: 32.1% 54.5% 13.3%
[libx264 @ 0x28521c0] mb P  I16..4: 26.0% 34.8%  1.0%  P16..4: 13.5%  3.7%  0.6%  0.0%  0.0%    skip:20.4%
[libx264 @ 0x28521c0] mb B  I16..4:  5.8%  6.9%  0.8%  B16..8: 21.1%  3.3%  0.2%  direct:10.6%  skip:51.3%  L0:42.8% L1:50.5% BI: 6.6%
[libx264 @ 0x28521c0] final ratefactor: 25.03
[libx264 @ 0x28521c0] 8x8 transform intra:55.5% inter:70.6%
[libx264 @ 0x28521c0] coded y,uvDC,uvAC intra: 26.3% 25.1% 2.1% inter: 8.3% 8.1% 0.1%
[libx264 @ 0x28521c0] i16 v,h,dc,p: 44% 25% 14% 17%
[libx264 @ 0x28521c0] i8 v,h,dc,ddl,ddr,vr,hd,vl,hu: 20% 26% 29%  5%  4%  4%  5%  4%  4%
[libx264 @ 0x28521c0] i4 v,h,dc,ddl,ddr,vr,hd,vl,hu: 16% 23% 10%  9%  9%  8% 10%  6% 10%
[libx264 @ 0x28521c0] i8c dc,h,v,p: 67% 16% 15%  2%
[libx264 @ 0x28521c0] Weighted P-Frames: Y:0.7% UV:0.0%
[libx264 @ 0x28521c0] ref P L0: 84.1% 15.9%
[libx264 @ 0x28521c0] ref B L0: 88.8% 11.2%
[libx264 @ 0x28521c0] ref B L1: 96.7%  3.3%
[libx264 @ 0x28521c0] kb/s:11564.28
